<?xml version="1.0" standalone="no"?>
<!DOCTYPE svg PUBLIC "-//W3C//DTD SVG 20010904//EN"
 "http://www.w3.org/TR/2001/REC-SVG-20010904/DTD/svg10.dtd">
<svg version="1.0" xmlns="http://www.w3.org/2000/svg"
 width="275.000000pt" height="275.000000pt" viewBox="0 0 275.000000 275.000000"
 preserveAspectRatio="xMidYMid meet">
<metadata>
Created by potrace 1.11, written by Peter Selinger 2001-2013
</metadata>
<g transform="translate(0.000000,275.000000) scale(0.100000,-0.100000)"
fill="#000000" stroke="none">
<path d="M1303 2457 c-17 -7 -48 -25 -69 -42 -41 -33 -224 -184 -264 -218 -14
-12 -77 -65 -140 -117 -63 -52 -117 -97 -120 -100 -3 -3 -164 -137 -357 -299
-272 -226 -353 -299 -353 -316 0 -21 15 -45 70 -110 50 -58 69 -75 88 -75 17
0 114 70 147 106 6 6 102 87 215 180 113 93 207 171 210 174 9 9 638 532 643
533 5 2 119 -92 357 -291 74 -62 142 -119 150 -125 27 -22 195 -162 200 -167
3 -3 30 -25 60 -50 30 -25 57 -47 60 -50 3 -3 30 -25 60 -50 30 -25 57 -47 60
-51 27 -31 256 -209 270 -209 23 0 46 20 109 98 28 35 51 73 51 86 0 18 -38
55 -161 157 -89 74 -177 148 -196 165 l-35 30 -2 362 c-1 279 -4 364 -14 374
-9 9 -62 13 -203 13 -175 0 -192 -2 -204 -19 -11 -14 -14 -59 -14 -188 1 -93
-1 -171 -2 -173 -3 -3 -183 145 -279 229 -173 151 -239 179 -337 143z"/>
<path d="M1260 1934 c-123 -102 -145 -120 -285 -236 -49 -40 -142 -117 -205
-169 -63 -52 -169 -139 -235 -193 -66 -55 -125 -105 -132 -113 -8 -11 -11
-130 -12 -435 0 -461 0 -463 59 -493 24 -13 85 -15 368 -15 l338 0 0 321 c-1
204 3 323 9 327 6 4 103 7 217 7 178 1 207 -1 210 -15 2 -8 3 -156 2 -327 l-1
-313 339 0 c370 0 383 2 412 58 18 36 20 863 2 885 -6 8 -51 47 -101 88 -49
41 -99 81 -110 90 -11 10 -114 95 -230 190 -239 197 -493 406 -515 425 -13 11
-33 -2 -130 -82z"/>
</g>
</svg>
