<svg version="1" xmlns="http://www.w3.org/2000/svg" width="366.667" height="366.667" viewBox="0 0 275.000000 275.000000"><path d="M130.3 29.3c-1.7.7-4.8 2.5-6.9 4.2-4.1 3.3-22.4 18.4-26.4 21.8-1.4 1.2-7.7 6.5-14 11.7-6.3 5.2-11.7 9.7-12 10-.3.3-16.4 13.7-35.7 29.9C8.1 129.5 0 136.8 0 138.5c0 2.1 1.5 4.5 7 11 5 5.8 6.9 7.5 8.8 7.5 1.7 0 11.4-7 14.7-10.6.6-.6 10.2-8.7 21.5-18s20.7-17.1 21-17.4c.9-.9 63.8-53.2 64.3-53.3.5-.2 11.9 9.2 35.7 29.1 7.4 6.2 14.2 11.9 15 12.5 2.7 2.2 19.5 16.2 20 16.7.3.3 3 2.5 6 5s5.7 4.7 6 5c.3.3 3 2.5 6 5s5.7 4.7 6 5.1c2.7 3.1 25.6 20.9 27 20.9 2.3 0 4.6-2 10.9-9.8 2.8-3.5 5.1-7.3 5.1-8.6 0-1.8-3.8-5.5-16.1-15.7-8.9-7.4-17.7-14.8-19.6-16.5l-3.5-3-.2-36.2c-.1-27.9-.4-36.4-1.4-37.4-.9-.9-6.2-1.3-20.3-1.3-17.5 0-19.2.2-20.4 1.9-1.1 1.4-1.4 5.9-1.4 18.8.1 9.3-.1 17.1-.2 17.3-.3.3-18.3-14.5-27.9-22.9-17.3-15.1-23.9-17.9-33.7-14.3z"/><path d="M126 81.6c-12.3 10.2-14.5 12-28.5 23.6-4.9 4-14.2 11.7-20.5 16.9-6.3 5.2-16.9 13.9-23.5 19.3-6.6 5.5-12.5 10.5-13.2 11.3-.8 1.1-1.1 13-1.2 43.5 0 46.1 0 46.3 5.9 49.3 2.4 1.3 8.5 1.5 36.8 1.5h33.8v-32.1c-.1-20.4.3-32.3.9-32.7.6-.4 10.3-.7 21.7-.7 17.8-.1 20.7.1 21 1.5.2.8.3 15.6.2 32.7l-.1 31.3h33.9c37 0 38.3-.2 41.2-5.8 1.8-3.6 2-86.3.2-88.5-.6-.8-5.1-4.7-10.1-8.8-4.9-4.1-9.9-8.1-11-9-1.1-1-11.4-9.5-23-19-23.9-19.7-49.3-40.6-51.5-42.5-1.3-1.1-3.3.2-13 8.2z"/></svg>